<?xml version="1.0" encoding="UTF-8"?>
<!DOCTYPE svg PUBLIC "-//W3C//DTD SVG 1.1//EN" "http://www.w3.org/Graphics/SVG/1.1/DTD/svg11.dtd">
<!-- Creator: CorelDRAW 2017 -->
<svg xmlns="http://www.w3.org/2000/svg" xml:space="preserve" width="210mm" height="297mm" version="1.1" style="shape-rendering:geometricPrecision; text-rendering:geometricPrecision; image-rendering:optimizeQuality; fill-rule:evenodd; clip-rule:evenodd"
viewBox="0 0 21000 29700"
 xmlns:xlink="http://www.w3.org/1999/xlink">
 <defs>
  <style type="text/css">
   <![CDATA[
    .fil0 {fill:white;fill-rule:nonzero}
   ]]>
  </style>
 </defs>
 <g id="Layer_x0020_1">
  <metadata id="CorelCorpID_0Corel-Layer"/>
  <path class="fil0" d="M13668 20790c-483,309 -1007,547 -1556,707 -550,161 -1118,244 -1688,244 -1661,0 -3165,-673 -4253,-1762 -1089,-1089 -1762,-2592 -1762,-4253 0,-1661 673,-3165 1762,-4253 1089,-1089 2592,-1762 4253,-1762 569,0 1136,83 1685,243 545,159 1068,396 1552,705l-661 1038c-384,-246 -800,-434 -1233,-560 -429,-125 -881,-190 -1343,-190 -1320,0 -2515,535 -3380,1400 -865,865 -1400,2060 -1400,3380 0,1320 535,2515 1400,3380 865,865 2060,1400 3380,1400 462,0 915,-65 1345,-191 431,-126 846,-315 1233,-563l666 1038z"/>
  <path class="fil0" d="M14814 12274c-80,-102 -163,-200 -250,-296l-278 252c81,90 159,182 234,277l294 -233zm-205 7150c86,-98 167,-196 246,-299l-298 -228c-74,96 -150,189 -230,280l282 248zm1009 -1646c48,-121 91,-242 130,-366l-358 -112c-37,115 -77,228 -121,341l349 137zm388 -1891c3,-131 2,-258 -2,-389l-375 16c5,121 5,241 2,362l375 11zm-279 -1911c-40,-123 -86,-245 -134,-364l-347 143c46,109 88,227 125,339l356 -118z"/>
  <path class="fil0" d="M8761 18321c249,159 517,281 796,363 279,82 570,124 867,124 851,0 1621,-345 2179,-902 558,-558 902,-1328 902,-2179 0,-851 -345,-1621 -902,-2179 -558,-558 -1328,-902 -2179,-902 -296,0 -587,42 -865,123 -279,82 -547,203 -795,361l-189 -297c276,-176 575,-312 886,-403 313,-91 637,-138 963,-138 948,0 1807,384 2428,1006 621,621 1006,1480 1006,2428 0,948 -384,1807 -1006,2428 -621,621 -1480,1006 -2428,1006 -327,0 -651,-47 -964,-139 -313,-92 -612,-227 -888,-404l190 -297z"/>
  <path class="fil0" d="M8016 13681c41,-49 85,-97 129,-143l-143 -138c-47,49 -93,100 -137,152l151 129zm252 4354c-47,-44 -92,-89 -137,-136l-144 136c47,50 95,97 145,144l136 -145zm-594 -753c-32,-56 -62,-113 -90,-170l-179 87c30,61 62,122 95,181l173 -98zm-340 -897c-13,-63 -25,-126 -34,-189l-196 29c10,68 22,135 37,202l194 -42zm-55 -957c6,-63 14,-128 24,-191l-196 -31c-11,67 -19,135 -26,203l198 19zm234 -930c25,-58 51,-118 80,-175l-178 -89c-31,60 -59,124 -85,186l183 78z"/>
  <path class="fil0" d="M11244 17007c-122,78 -255,138 -393,179 -139,41 -283,62 -427,62 -420,0 -801,-170 -1076,-446 -275,-275 -446,-656 -446,-1076 0,-420 170,-801 446,-1076 275,-275 656,-446 1076,-446 144,0 288,21 427,61 138,40 270,100 393,178l-94 148c-108,-69 -225,-122 -347,-158 -121,-35 -248,-54 -378,-54 -371,0 -708,151 -951,394 -243,243 -394,580 -394,951 0,371 151,708 394,951 243,243 580,394 951,394 129,0 257,-18 378,-54 122,-36 239,-89 347,-158l95 148z"/>
  <path class="fil0" d="M11601 14794c-29,-37 -61,-74 -94,-108l-99 95c30,31 59,64 86,98l107 -85zm-90 1969c34,-36 63,-71 94,-108l-108 -84c-22,31 -59,70 -85,98l99 94zm355 -615c14,-47 23,-92 34,-139l-134 -25c-8,43 -18,85 -31,127l131 38zm33 -709c-9,-46 -20,-94 -34,-139l-131 39c13,40 23,85 31,126l134 -27z"/>
 </g>
</svg>
