<?xml version="1.0" encoding="UTF-8"?>
<!DOCTYPE svg PUBLIC "-//W3C//DTD SVG 1.1//EN" "http://www.w3.org/Graphics/SVG/1.1/DTD/svg11.dtd">
<!-- Creator: CorelDRAW 2017 -->
<svg xmlns="http://www.w3.org/2000/svg" xml:space="preserve" width="210mm" height="297mm" version="1.1" style="shape-rendering:geometricPrecision; text-rendering:geometricPrecision; image-rendering:optimizeQuality; fill-rule:evenodd; clip-rule:evenodd"
viewBox="0 0 21000 29700"
 xmlns:xlink="http://www.w3.org/1999/xlink">
 <defs>
  <style type="text/css">
   <![CDATA[
    .fil0 {fill:white;fill-rule:nonzero}
   ]]>
  </style>
 </defs>
 <g id="Layer_x0020_1">
  <metadata id="CorelCorpID_0Corel-Layer"/>
  <path class="fil0" d="M13222 17117c-340,218 -709,385 -1095,498 -387,113 -787,172 -1188,172 -1169,0 -2227,-474 -2993,-1240 -766,-766 -1240,-1824 -1240,-2993 0,-1169 474,-2227 1240,-2993 766,-766 1824,-1240 2993,-1240 400,0 800,58 1186,171 384,112 752,279 1092,496l-465 730c-270,-173 -563,-305 -868,-394 -302,-88 -620,-134 -945,-134 -929,0 -1770,376 -2379,985 -609,609 -985,1450 -985,2379 0,929 376,1770 985,2379 609,609 1450,985 2379,985 325,0 644,-46 947,-134 303,-89 596,-222 868,-396l469 730z"/>
  <path class="fil0" d="M14029 11124c-57,-72 -115,-141 -176,-208l-196 177c57,64 112,128 165,195l207 -164zm-145 5032c60,-69 118,-138 173,-211l-210 -160c-52,68 -106,133 -162,197l198 174zm710 -1158c34,-85 64,-171 92,-257l-252 -79c-26,81 -54,161 -85,240l246 97zm273 -1331c2,-92 2,-181 -2,-273l-264 11c4,85 4,169 2,254l264 8zm-196 -1345c-28,-87 -60,-172 -95,-256l-244 101c32,77 62,159 88,239l251 -83z"/>
  <path class="fil0" d="M9769 15380c175,112 364,198 560,255 196,57 401,87 610,87 599,0 1141,-243 1533,-635 392,-392 635,-935 635,-1533 0,-599 -243,-1141 -635,-1533 -392,-392 -934,-635 -1533,-635 -208,0 -413,29 -609,87 -197,57 -385,143 -559,254l-133 -209c194,-124 404,-219 624,-283 220,-64 448,-97 678,-97 667,0 1272,271 1709,708 437,437 708,1042 708,1709 0,667 -271,1272 -708,1709 -437,437 -1042,708 -1709,708 -230,0 -458,-33 -679,-98 -220,-64 -431,-160 -625,-284l134 -209z"/>
  <path class="fil0" d="M9245 12114c29,-34 60,-68 91,-101l-101 -97c-33,35 -66,70 -97,107l106 90zm177 3064c-33,-31 -65,-63 -96,-95l-102 96c33,35 67,69 102,101l96 -102zm-418 -530c-22,-39 -43,-79 -63,-120l-126 61c21,43 43,86 67,127l122 -69zm-239 -631c-9,-44 -17,-88 -24,-133l-138 21c7,48 16,95 26,142l137 -29zm-39 -674c4,-45 10,-90 17,-134l-138 -22c-7,47 -14,95 -18,143l139 13zm165 -654c17,-41 36,-83 56,-123l-125 -62c-22,42 -42,87 -60,131l129 55z"/>
  <path class="fil0" d="M11516 14455c-86,55 -179,97 -277,126 -98,29 -199,43 -301,43 -296,0 -563,-120 -757,-314 -194,-194 -314,-462 -314,-757 0,-296 120,-563 314,-757 194,-194 462,-314 757,-314 102,0 203,15 300,43 97,28 190,71 276,126l-66 104c-76,-49 -158,-86 -244,-111 -85,-25 -175,-38 -266,-38 -261,0 -498,106 -669,277 -171,171 -277,408 -277,669 0,261 106,498 277,669 171,171 408,277 669,277 91,0 181,-13 266,-38 86,-25 168,-62 244,-111l67 104z"/>
  <path class="fil0" d="M11767 12897c-21,-26 -43,-52 -66,-76l-69 67c21,22 42,45 60,69l75 -60zm-64 1385c24,-25 44,-50 66,-76l-76 -59c-15,22 -41,49 -60,69l70 66zm250 -433c10,-33 16,-64 24,-98l-95 -18c-6,30 -13,60 -22,89l92 27zm23 -499c-6,-33 -14,-66 -24,-98l-92 28c9,28 16,60 22,89l94 -19z"/>
  <path class="fil0" d="M8510 20868c-78,-85 -167,-150 -270,-194 -103,-45 -214,-67 -333,-67 -205,0 -370,66 -494,199 -123,133 -185,309 -185,529 0,229 63,408 187,539 124,131 296,195 516,195 122,0 231,-23 327,-68 96,-46 180,-115 252,-207l0 579c-93,52 -192,91 -298,117 -105,26 -218,40 -337,40 -345,0 -626,-110 -843,-329 -218,-219 -326,-504 -326,-853 0,-354 112,-639 337,-856 226,-218 519,-326 883,-326 114,0 219,11 315,34 96,22 186,57 269,104l0 565zm514 1572l0 -3594 473 0 0 1757c101,-152 218,-263 355,-332 136,-70 302,-104 497,-104 164,0 303,26 419,78 115,52 205,129 270,231 39,60 66,131 84,211 17,80 25,221 25,422l0 1333 -508 0 0 -1128c0,-289 -35,-481 -105,-576 -70,-95 -195,-142 -375,-142 -117,0 -222,21 -314,65 -92,44 -165,104 -217,183 -37,53 -63,120 -78,203 -15,82 -22,214 -22,395l0 1001 -503 0zm2815 0l0 -3594 503 0 0 3594 -503 0zm1710 -2198l0 1239c0,213 44,366 132,459 88,93 230,139 428,139 198,0 340,-47 428,-139 88,-93 132,-246 132,-459l0 -1239 503 0 0 1088c0,420 -84,726 -252,916 -169,190 -438,285 -806,285 -375,0 -647,-94 -816,-283 -169,-188 -252,-495 -252,-918l0 -1088 503 0z"/>
 </g>
</svg>
