<?xml version="1.0" encoding="UTF-8"?>
<!DOCTYPE svg PUBLIC "-//W3C//DTD SVG 1.1//EN" "http://www.w3.org/Graphics/SVG/1.1/DTD/svg11.dtd">
<!-- Creator: CorelDRAW 2017 -->
<svg xmlns="http://www.w3.org/2000/svg" xml:space="preserve" width="297mm" height="210mm" version="1.1" style="shape-rendering:geometricPrecision; text-rendering:geometricPrecision; image-rendering:optimizeQuality; fill-rule:evenodd; clip-rule:evenodd"
viewBox="0 0 29700 21000"
 xmlns:xlink="http://www.w3.org/1999/xlink">
 <defs>
  <style type="text/css">
   <![CDATA[
    .fil0 {fill:#4542D6;fill-rule:nonzero}
   ]]>
  </style>
 </defs>
 <g id="Layer_x0020_1">
  <metadata id="CorelCorpID_0Corel-Layer"/>
  <path class="fil0" d="M11295 14285c-340,218 -709,385 -1095,498 -387,113 -787,172 -1188,172 -1169,0 -2227,-474 -2993,-1240 -766,-766 -1240,-1824 -1240,-2993 0,-1169 474,-2227 1240,-2993 766,-766 1824,-1240 2993,-1240 400,0 800,58 1186,171 384,112 752,279 1092,496l-465 730c-270,-173 -563,-305 -868,-394 -302,-88 -620,-134 -945,-134 -929,0 -1770,376 -2379,985 -609,609 -985,1450 -985,2379 0,929 376,1770 985,2379 609,609 1450,985 2379,985 325,0 644,-46 947,-134 303,-89 596,-222 868,-396l469 730z"/>
  <path class="fil0" d="M12102 8292c-57,-72 -115,-141 -176,-208l-196 177c57,64 112,128 165,195l207 -164zm-145 5032c60,-69 118,-138 173,-211l-210 -160c-52,68 -106,133 -162,197l198 174zm710 -1158c34,-85 64,-171 92,-257l-252 -79c-26,81 -54,161 -85,240l246 97zm273 -1331c2,-92 2,-181 -2,-273l-264 11c4,85 4,169 2,254l264 8zm-196 -1345c-28,-87 -60,-172 -95,-256l-244 101c32,77 62,159 88,239l251 -83z"/>
  <path class="fil0" d="M7843 12547c175,112 364,198 560,255 196,57 401,87 610,87 599,0 1141,-243 1533,-635 392,-392 635,-935 635,-1533 0,-599 -243,-1141 -635,-1533 -392,-392 -934,-635 -1533,-635 -208,0 -413,29 -609,87 -197,57 -385,143 -559,254l-133 -209c194,-124 404,-219 624,-283 220,-64 448,-97 678,-97 667,0 1272,271 1709,708 437,437 708,1042 708,1709 0,667 -271,1272 -708,1709 -437,437 -1042,708 -1709,708 -230,0 -458,-33 -679,-98 -220,-64 -431,-160 -625,-284l134 -209z"/>
  <path class="fil0" d="M7318 9282c29,-34 60,-68 91,-101l-101 -97c-33,35 -66,70 -97,107l106 90zm177 3064c-33,-31 -65,-63 -96,-95l-102 96c33,35 67,69 102,101l96 -102zm-418 -530c-22,-39 -43,-79 -63,-120l-126 61c21,43 43,86 67,127l122 -69zm-239 -631c-9,-44 -17,-88 -24,-133l-138 21c7,48 16,95 26,142l137 -29zm-39 -674c4,-45 10,-90 17,-134l-138 -22c-7,47 -14,95 -18,143l139 13zm165 -654c17,-41 36,-83 56,-123l-125 -62c-22,42 -42,87 -60,131l129 55z"/>
  <path class="fil0" d="M9590 11622c-86,55 -179,97 -277,126 -98,29 -199,43 -301,43 -296,0 -563,-120 -757,-314 -194,-194 -314,-462 -314,-757 0,-296 120,-563 314,-757 194,-194 462,-314 757,-314 102,0 203,15 300,43 97,28 190,71 276,126l-66 104c-76,-49 -158,-86 -244,-111 -85,-25 -175,-38 -266,-38 -261,0 -498,106 -669,277 -171,171 -277,408 -277,669 0,261 106,498 277,669 171,171 408,277 669,277 91,0 181,-13 266,-38 86,-25 168,-62 244,-111l67 104z"/>
  <path class="fil0" d="M9841 10065c-21,-26 -43,-52 -66,-76l-69 67c21,22 42,45 60,69l75 -60zm-64 1385c24,-25 44,-50 66,-76l-76 -59c-15,22 -41,49 -60,69l70 66zm250 -433c10,-33 16,-64 24,-98l-95 -18c-6,30 -13,60 -22,89l92 27zm23 -499c-6,-33 -14,-66 -24,-98l-92 28c9,28 16,60 22,89l94 -19z"/>
  <path class="fil0" d="M16903 10989c-111,-122 -240,-215 -388,-278 -148,-65 -307,-97 -478,-97 -294,0 -531,95 -709,286 -177,191 -266,443 -266,759 0,328 90,586 268,774 178,188 425,281 741,281 175,0 332,-33 469,-98 138,-66 258,-165 363,-298l0 832c-133,75 -276,131 -428,168 -151,38 -314,57 -484,57 -496,0 -899,-158 -1210,-473 -313,-315 -468,-724 -468,-1225 0,-508 161,-918 484,-1230 324,-313 746,-468 1268,-468 164,0 315,16 452,49 138,32 267,82 386,149l0 811zm738 2257l0 -5162 680 0 0 2523c144,-218 314,-377 509,-477 195,-100 433,-150 714,-150 235,0 435,38 601,111 165,75 294,185 388,332 56,86 95,188 120,303 24,115 36,317 36,606l0 1914 -730 0 0 -1621c0,-415 -50,-691 -151,-827 -101,-136 -281,-205 -539,-205 -168,0 -319,31 -451,93 -132,63 -236,150 -311,263 -53,76 -91,173 -111,292 -22,118 -32,307 -32,567l0 1438 -723 0zm4043 0l0 -5162 723 0 0 5162 -723 0zm2456 -3157l0 1780c0,306 64,526 190,659 126,133 331,200 615,200 284,0 489,-67 615,-200 126,-133 190,-353 190,-659l0 -1780 723 0 0 1563c0,603 -120,1042 -363,1315 -242,273 -629,409 -1158,409 -539,0 -930,-135 -1172,-406 -242,-271 -363,-710 -363,-1318l0 -1563 723 0z"/>
 </g>
</svg>
