<?xml version="1.0" encoding="UTF-8"?>
<svg width="500px" height="360px" viewBox="0 0 500 360" version="1.1" xmlns="http://www.w3.org/2000/svg" xmlns:xlink="http://www.w3.org/1999/xlink">
    <!-- Generator: Sketch 48.2 (47327) - http://www.bohemiancoding.com/sketch -->
    <title>Chlu Logo - Vertical - White</title>
    <desc>Created with Sketch.</desc>
    <defs></defs>
    <g id="Social" stroke="none" stroke-width="1" fill="none" fill-rule="evenodd">
        <g id="Chlu-Logo---Vertical---White" fill="#FFFFFF">
            <g id="Group" transform="translate(9.558315, 32.066406)">
                <path d="M76.606424,278.875174 L64.3675278,266.787375 L54.092899,277.062004 C53.488509,277.666394 52.8841191,277.968589 51.9775342,277.968589 L27.0464495,277.968589 C26.1398646,277.968589 25.5354747,277.666394 24.9310847,277.062004 L19.0382829,271.169202 C18.4338929,270.564812 18.131698,269.809325 18.131698,269.053838 L18.131698,220.551546 C18.131698,219.796058 18.4338929,219.040571 19.0382829,218.436181 L24.9310847,212.543379 C25.5354747,211.938989 26.1398646,211.636794 27.0464495,211.636794 L51.9775342,211.636794 C52.8841191,211.636794 53.488509,211.938989 54.092899,212.543379 L64.3675278,222.818008 L76.606424,210.730209 L63.4609429,197.584728 C61.3455782,195.469363 58.7769209,194.411681 55.9060688,194.411681 L23.1179149,194.411681 C20.2470627,194.411681 17.6784055,195.469363 15.5630408,197.584728 L3.17304715,209.974722 C1.05768238,212.090087 0,214.658744 0,217.529596 L0,272.075787 C0,274.94664 1.05768238,277.515297 3.17304715,279.630661 L15.5630408,292.020655 C17.6784055,294.13602 20.2470627,295.193702 23.1179149,295.193702 L55.9060688,295.193702 C58.7769209,295.193702 61.3455782,294.13602 63.4609429,292.020655 L76.606424,278.875174 Z M210.059076,295.193702 L210.059076,194.411681 L191.927378,194.411681 L191.927378,236.114586 L151.58435,236.114586 L151.58435,194.411681 L133.452652,194.411681 L133.452652,295.193702 L151.58435,295.193702 L151.58435,253.339699 L191.927378,253.339699 L191.927378,295.193702 L210.059076,295.193702 Z M345.022702,295.193702 L345.022702,277.968589 L295.613825,277.968589 L295.613825,194.411681 L277.482127,194.411681 L277.482127,295.193702 L345.022702,295.193702 Z M473.186942,272.075787 L473.186942,194.411681 L455.055244,194.411681 L455.055244,269.053838 C455.055244,269.809325 454.753049,270.564812 454.148659,271.169202 L448.255857,277.062004 C447.651467,277.666394 447.047077,277.968589 446.140492,277.968589 L423.626967,277.968589 C422.720382,277.968589 422.115993,277.666394 421.511603,277.062004 L415.618801,271.169202 C415.014411,270.564812 414.712216,269.809325 414.712216,269.053838 L414.712216,194.411681 L396.580518,194.411681 L396.580518,272.075787 C396.580518,274.94664 397.6382,277.515297 399.753565,279.630661 L412.143559,292.020655 C414.258923,294.13602 416.827581,295.193702 419.698433,295.193702 L450.069027,295.193702 C452.939879,295.193702 455.508536,294.13602 457.623901,292.020655 L470.013895,279.630661 C472.129259,277.515297 473.186942,274.94664 473.186942,272.075787 Z" id="CHLU" stroke="#FFFFFF" stroke-width="0.5"></path>
                <path d="M253.90749,54.9582413 L237.727397,25.7523518 L221.547305,54.9582413 L208.054587,37.779347 L213.931651,11.6352277 L237.727397,-3.55271368e-15 L261.523144,11.6352277 L267.400208,37.779347 L253.90749,54.9582413 Z M248.825511,108.159878 L274.698548,108.159878 L283.381251,108.159878 L265.261999,75.4537067 L288.814411,75.3933019 L305.797976,96.1204186 L300.316536,122.035084 L276.497727,133.623027 L252.277598,122.15829 L248.825511,108.159878 Z M210.222899,75.3993686 L192.073544,108.159878 L227.02538,108.159878 L224.090512,122.035084 L200.271703,133.623027 L176.051574,122.15829 L169.668376,96.2740532 L185.928788,75.4616757 L210.222899,75.3993686 Z" id="Combined-Shape"></path>
            </g>
        </g>
    </g>
</svg>