<svg xmlns="http://www.w3.org/2000/svg" viewBox="0 0 161.4 134.9"><defs><style>.cls-1{fill:#3051E2;}</style></defs><title>123</title><g id="Слой_2" data-name="Слой 2"><g id="Layer_1" data-name="Layer 1"><path class="cls-1" d="M161.35,107.1A26.15,26.15,0,0,0,119.5,87.89a27,27,0,0,1-23.63,4.35L87,89.73A33.9,33.9,0,0,1,67.67,71.17h0a34,34,0,0,0-1-3.45A28.89,28.89,0,0,1,72.51,39l2.21-2.44a13.18,13.18,0,0,1,11.44-4.22,16.52,16.52,0,0,0,4.49-.05A16.26,16.26,0,1,0,72.65,21,12.48,12.48,0,0,1,69.8,32.88l-3.24,3.6A27.61,27.61,0,0,1,40.8,45a34.25,34.25,0,1,0,14.83,60.36,35.47,35.47,0,0,1,31.89-6.64L94,100.59c5.46,1.55,13.1,4.4,15.8,14.19h0a26.16,26.16,0,0,0,51.56-7.7Z"/></g></g></svg>