<svg xmlns="http://www.w3.org/2000/svg" viewBox="0 0 132.7 25.94"><defs><style>.cls-1{fill:#2c2e3d;}</style></defs><title>chlu-1</title><g id="Слой_2" data-name="Слой 2"><g id="Слой_1-2" data-name="Слой 1"><g id="logo"><path id="CHLU" class="cls-1" d="M54,18.76l-2.43-2.4-2,2a.54.54,0,0,1-.42.18h-5a.54.54,0,0,1-.42-.18l-1.17-1.17a.59.59,0,0,1-.18-.42V7.18a.59.59,0,0,1,.18-.42L43.7,5.59a.54.54,0,0,1,.42-.18h5a.54.54,0,0,1,.42.18l2,2L54,5.23,51.35,2.62A2.06,2.06,0,0,0,49.85,2H43.34a2.06,2.06,0,0,0-1.5.63L39.38,5.08a2.06,2.06,0,0,0-.63,1.5V17.41a2.06,2.06,0,0,0,.63,1.5l2.46,2.46a2.06,2.06,0,0,0,1.5.63h6.51a2.06,2.06,0,0,0,1.5-.63ZM80.46,22V2h-3.6v8.28h-8V2h-3.6V22h3.6V13.69h8V22Zm26.8,0V18.58H97.45V2h-3.6V22Zm25.45-4.59V2h-3.6V16.81a.59.59,0,0,1-.18.42l-1.17,1.17a.54.54,0,0,1-.42.18h-4.47a.54.54,0,0,1-.42-.18l-1.17-1.17a.59.59,0,0,1-.18-.42V2h-3.6V17.41a2.06,2.06,0,0,0,.63,1.5l2.46,2.46a2.06,2.06,0,0,0,1.5.63h6a2.06,2.06,0,0,0,1.5-.63l2.46-2.46a2.06,2.06,0,0,0,.63-1.5Z"/><path id="Combined-Shape" class="cls-1" d="M16.36,10.67,19,7.34,17.83,2.26,13.21,0,8.59,2.26,7.45,7.34l2.62,3.34L13.21,5ZM15.37,21,16,23.72l4.7,2.23,4.62-2.25,1.07-5-3.3-4H18.56L22.08,21ZM7.87,14.64H3.16L0,18.69l1.24,5,4.7,2.23,4.62-2.25L11.14,21H4.35Z"/></g></g></g></svg>