<svg xmlns="http://www.w3.org/2000/svg" viewBox="0 0 130.7 22.94"><defs><style>.cls-1{fill:#fff;}</style></defs><title>chlu-2</title><g id="Слой_2" data-name="Слой 2"><g id="Слой_1-2" data-name="Слой 1"><g id="logo"><path id="CHLU" class="cls-1" d="M52,17.76l-2.43-2.4-2,2a.54.54,0,0,1-.42.18h-5a.54.54,0,0,1-.42-.18l-1.17-1.17a.59.59,0,0,1-.18-.42V6.18a.59.59,0,0,1,.18-.42L41.7,4.59a.54.54,0,0,1,.42-.18h5a.54.54,0,0,1,.42.18l2,2L52,4.23,49.35,1.62A2.06,2.06,0,0,0,47.85,1H41.34a2.06,2.06,0,0,0-1.5.63L37.38,4.08a2.06,2.06,0,0,0-.63,1.5V16.41a2.06,2.06,0,0,0,.63,1.5l2.46,2.46a2.06,2.06,0,0,0,1.5.63h6.51a2.06,2.06,0,0,0,1.5-.63ZM78.46,21V1h-3.6V9.27h-8V1h-3.6V21h3.6V12.69h8V21Zm26.8,0V17.58H95.45V1h-3.6V21Zm25.45-4.59V1h-3.6V15.81a.59.59,0,0,1-.18.42l-1.17,1.17a.54.54,0,0,1-.42.18h-4.47a.54.54,0,0,1-.42-.18l-1.17-1.17a.59.59,0,0,1-.18-.42V1h-3.6V16.41a2.06,2.06,0,0,0,.63,1.5l2.46,2.46a2.06,2.06,0,0,0,1.5.63h6a2.06,2.06,0,0,0,1.5-.63l2.46-2.46a2.06,2.06,0,0,0,.63-1.5Z"/><path id="Combined-Shape" class="cls-1" d="M14.46,9.44l2.32-2.95L15.77,2,11.68,0,7.6,2l-1,4.49L8.91,9.44l2.78-5Zm-.87,9.13.59,2.4,4.16,2,4.09-2,.94-4.45-2.91-3.56h-4l3.11,5.62ZM7,12.94H2.79L0,16.53,1.1,21l4.16,2,4.09-2,.5-2.38h-6Z"/></g></g></g></svg>